<mxfile host="app.diagrams.net" modified="2023-09-23T18:57:43.628Z" agent="Mozilla/5.0 (Windows NT 10.0; Win64; x64) AppleWebKit/537.36 (KHTML, like Gecko) Chrome/117.0.0.0 Safari/537.36" etag="RwLF_IBzKiOmDjtWR5sy" version="21.7.5" type="device">
  <diagram name="Page-1" id="hs-vUUEDCnIEeR5F0aw0">
    <mxGraphModel dx="2311" dy="1713" grid="1" gridSize="10" guides="1" tooltips="1" connect="1" arrows="1" fold="1" page="1" pageScale="1" pageWidth="850" pageHeight="1100" math="0" shadow="0">
      <root>
        <mxCell id="0" />
        <mxCell id="1" parent="0" />
        <mxCell id="wMxmWrA6vU7E4x_HZSGD-15" value="" style="edgeStyle=orthogonalEdgeStyle;rounded=0;orthogonalLoop=1;jettySize=auto;html=1;" edge="1" parent="1" source="wMxmWrA6vU7E4x_HZSGD-1" target="wMxmWrA6vU7E4x_HZSGD-14">
          <mxGeometry relative="1" as="geometry">
            <Array as="points">
              <mxPoint x="180" y="360" />
              <mxPoint x="180" y="360" />
            </Array>
          </mxGeometry>
        </mxCell>
        <mxCell id="wMxmWrA6vU7E4x_HZSGD-95" value="year" style="edgeLabel;html=1;align=center;verticalAlign=middle;resizable=0;points=[];" vertex="1" connectable="0" parent="wMxmWrA6vU7E4x_HZSGD-15">
          <mxGeometry x="-0.55" y="2" relative="1" as="geometry">
            <mxPoint x="-22" as="offset" />
          </mxGeometry>
        </mxCell>
        <mxCell id="wMxmWrA6vU7E4x_HZSGD-88" style="edgeStyle=orthogonalEdgeStyle;rounded=0;orthogonalLoop=1;jettySize=auto;html=1;exitX=0.75;exitY=0;exitDx=0;exitDy=0;entryX=0.5;entryY=1;entryDx=0;entryDy=0;" edge="1" parent="1" source="wMxmWrA6vU7E4x_HZSGD-1" target="wMxmWrA6vU7E4x_HZSGD-2">
          <mxGeometry relative="1" as="geometry" />
        </mxCell>
        <mxCell id="wMxmWrA6vU7E4x_HZSGD-89" value="total_days" style="edgeLabel;html=1;align=center;verticalAlign=middle;resizable=0;points=[];" vertex="1" connectable="0" parent="wMxmWrA6vU7E4x_HZSGD-88">
          <mxGeometry x="-0.6956" y="-1" relative="1" as="geometry">
            <mxPoint x="29" y="-8" as="offset" />
          </mxGeometry>
        </mxCell>
        <mxCell id="wMxmWrA6vU7E4x_HZSGD-106" style="edgeStyle=orthogonalEdgeStyle;rounded=0;orthogonalLoop=1;jettySize=auto;html=1;exitX=0.75;exitY=1;exitDx=0;exitDy=0;entryX=0.137;entryY=-0.085;entryDx=0;entryDy=0;entryPerimeter=0;" edge="1" parent="1">
          <mxGeometry relative="1" as="geometry">
            <mxPoint x="310.58000000000004" y="260" as="sourcePoint" />
            <mxPoint x="310.0000000000001" y="374.9000000000001" as="targetPoint" />
          </mxGeometry>
        </mxCell>
        <mxCell id="wMxmWrA6vU7E4x_HZSGD-108" value="year, month" style="edgeLabel;html=1;align=center;verticalAlign=middle;resizable=0;points=[];" vertex="1" connectable="0" parent="wMxmWrA6vU7E4x_HZSGD-106">
          <mxGeometry x="-0.2204" y="2" relative="1" as="geometry">
            <mxPoint x="-38" y="-15" as="offset" />
          </mxGeometry>
        </mxCell>
        <mxCell id="wMxmWrA6vU7E4x_HZSGD-1" value="calc_total_days" style="rounded=0;whiteSpace=wrap;html=1;" vertex="1" parent="1">
          <mxGeometry x="160" y="200" width="190" height="60" as="geometry" />
        </mxCell>
        <mxCell id="wMxmWrA6vU7E4x_HZSGD-9" value="" style="edgeStyle=orthogonalEdgeStyle;rounded=0;orthogonalLoop=1;jettySize=auto;html=1;exitX=0.193;exitY=1.025;exitDx=0;exitDy=0;exitPerimeter=0;" edge="1" parent="1">
          <mxGeometry relative="1" as="geometry">
            <mxPoint x="310.0199999999998" y="40" as="sourcePoint" />
            <mxPoint x="240" y="200" as="targetPoint" />
            <Array as="points">
              <mxPoint x="310" y="98" />
              <mxPoint x="240" y="98" />
              <mxPoint x="240" y="198" />
            </Array>
          </mxGeometry>
        </mxCell>
        <mxCell id="wMxmWrA6vU7E4x_HZSGD-84" value="year, month" style="edgeLabel;html=1;align=center;verticalAlign=middle;resizable=0;points=[];" vertex="1" connectable="0" parent="wMxmWrA6vU7E4x_HZSGD-9">
          <mxGeometry x="0.0686" y="3" relative="1" as="geometry">
            <mxPoint x="-43" y="19" as="offset" />
          </mxGeometry>
        </mxCell>
        <mxCell id="wMxmWrA6vU7E4x_HZSGD-13" value="" style="edgeStyle=orthogonalEdgeStyle;rounded=0;orthogonalLoop=1;jettySize=auto;html=1;" edge="1" parent="1" source="wMxmWrA6vU7E4x_HZSGD-2" target="wMxmWrA6vU7E4x_HZSGD-12">
          <mxGeometry relative="1" as="geometry">
            <Array as="points">
              <mxPoint x="-140" y="-20" />
            </Array>
          </mxGeometry>
        </mxCell>
        <mxCell id="wMxmWrA6vU7E4x_HZSGD-42" value="total_days_in_a_month" style="edgeLabel;html=1;align=center;verticalAlign=middle;resizable=0;points=[];" vertex="1" connectable="0" parent="wMxmWrA6vU7E4x_HZSGD-13">
          <mxGeometry x="0.048" y="3" relative="1" as="geometry">
            <mxPoint x="-32" y="-13" as="offset" />
          </mxGeometry>
        </mxCell>
        <mxCell id="wMxmWrA6vU7E4x_HZSGD-43" value="day_of_the _week" style="edgeLabel;html=1;align=center;verticalAlign=middle;resizable=0;points=[];" vertex="1" connectable="0" parent="wMxmWrA6vU7E4x_HZSGD-13">
          <mxGeometry x="0.048" y="3" relative="1" as="geometry">
            <mxPoint x="-42" y="-33" as="offset" />
          </mxGeometry>
        </mxCell>
        <mxCell id="wMxmWrA6vU7E4x_HZSGD-56" value="" style="edgeStyle=orthogonalEdgeStyle;rounded=0;orthogonalLoop=1;jettySize=auto;html=1;entryX=0.203;entryY=-0.047;entryDx=0;entryDy=0;entryPerimeter=0;" edge="1" parent="1" target="wMxmWrA6vU7E4x_HZSGD-55">
          <mxGeometry relative="1" as="geometry">
            <mxPoint x="275" y="10" as="sourcePoint" />
            <mxPoint y="130" as="targetPoint" />
            <Array as="points">
              <mxPoint x="275" y="11" />
              <mxPoint x="-2" y="11" />
            </Array>
          </mxGeometry>
        </mxCell>
        <mxCell id="wMxmWrA6vU7E4x_HZSGD-57" value="year, month" style="edgeLabel;html=1;align=center;verticalAlign=middle;resizable=0;points=[];" vertex="1" connectable="0" parent="wMxmWrA6vU7E4x_HZSGD-56">
          <mxGeometry x="-0.358" y="-1" relative="1" as="geometry">
            <mxPoint y="-9" as="offset" />
          </mxGeometry>
        </mxCell>
        <mxCell id="wMxmWrA6vU7E4x_HZSGD-111" style="edgeStyle=orthogonalEdgeStyle;rounded=0;orthogonalLoop=1;jettySize=auto;html=1;exitX=0.75;exitY=1;exitDx=0;exitDy=0;entryX=0.25;entryY=0;entryDx=0;entryDy=0;" edge="1" parent="1" source="wMxmWrA6vU7E4x_HZSGD-2" target="wMxmWrA6vU7E4x_HZSGD-10">
          <mxGeometry relative="1" as="geometry">
            <Array as="points">
              <mxPoint x="388" y="140" />
              <mxPoint x="440" y="140" />
            </Array>
          </mxGeometry>
        </mxCell>
        <mxCell id="wMxmWrA6vU7E4x_HZSGD-112" value="total_days" style="edgeLabel;html=1;align=center;verticalAlign=middle;resizable=0;points=[];" vertex="1" connectable="0" parent="wMxmWrA6vU7E4x_HZSGD-111">
          <mxGeometry x="-0.0332" y="1" relative="1" as="geometry">
            <mxPoint x="10" y="21" as="offset" />
          </mxGeometry>
        </mxCell>
        <mxCell id="wMxmWrA6vU7E4x_HZSGD-2" value="main" style="rounded=0;whiteSpace=wrap;html=1;" vertex="1" parent="1">
          <mxGeometry x="275" y="-40" width="150" height="80" as="geometry" />
        </mxCell>
        <mxCell id="wMxmWrA6vU7E4x_HZSGD-90" style="edgeStyle=orthogonalEdgeStyle;rounded=0;orthogonalLoop=1;jettySize=auto;html=1;exitX=0.75;exitY=0;exitDx=0;exitDy=0;entryX=1;entryY=1;entryDx=0;entryDy=0;" edge="1" parent="1">
          <mxGeometry relative="1" as="geometry">
            <mxPoint x="495" y="200" as="sourcePoint" />
            <mxPoint x="420" y="40" as="targetPoint" />
            <Array as="points">
              <mxPoint x="495" y="120" />
              <mxPoint x="420" y="120" />
            </Array>
          </mxGeometry>
        </mxCell>
        <mxCell id="wMxmWrA6vU7E4x_HZSGD-92" value="day_of_the_week" style="edgeLabel;html=1;align=center;verticalAlign=middle;resizable=0;points=[];" vertex="1" connectable="0" parent="wMxmWrA6vU7E4x_HZSGD-90">
          <mxGeometry x="0.0185" y="-2" relative="1" as="geometry">
            <mxPoint x="48" y="39" as="offset" />
          </mxGeometry>
        </mxCell>
        <mxCell id="wMxmWrA6vU7E4x_HZSGD-10" value="calc_day_of_week" style="rounded=0;whiteSpace=wrap;html=1;" vertex="1" parent="1">
          <mxGeometry x="410" y="200" width="120" height="60" as="geometry" />
        </mxCell>
        <mxCell id="wMxmWrA6vU7E4x_HZSGD-12" value="display_month" style="rounded=0;whiteSpace=wrap;html=1;" vertex="1" parent="1">
          <mxGeometry x="-200" y="200" width="120" height="60" as="geometry" />
        </mxCell>
        <mxCell id="wMxmWrA6vU7E4x_HZSGD-20" value="" style="edgeStyle=orthogonalEdgeStyle;rounded=0;orthogonalLoop=1;jettySize=auto;html=1;entryX=0.25;entryY=0;entryDx=0;entryDy=0;" edge="1" parent="1" source="wMxmWrA6vU7E4x_HZSGD-14" target="wMxmWrA6vU7E4x_HZSGD-19">
          <mxGeometry relative="1" as="geometry" />
        </mxCell>
        <mxCell id="wMxmWrA6vU7E4x_HZSGD-52" value="year" style="edgeLabel;html=1;align=center;verticalAlign=middle;resizable=0;points=[];" vertex="1" connectable="0" parent="wMxmWrA6vU7E4x_HZSGD-20">
          <mxGeometry x="0.7025" y="2" relative="1" as="geometry">
            <mxPoint x="-12" y="-43" as="offset" />
          </mxGeometry>
        </mxCell>
        <mxCell id="wMxmWrA6vU7E4x_HZSGD-105" style="edgeStyle=orthogonalEdgeStyle;rounded=0;orthogonalLoop=1;jettySize=auto;html=1;exitX=0.75;exitY=0;exitDx=0;exitDy=0;" edge="1" parent="1">
          <mxGeometry relative="1" as="geometry">
            <mxPoint x="210" y="270" as="targetPoint" />
            <mxPoint x="210" y="380" as="sourcePoint" />
          </mxGeometry>
        </mxCell>
        <mxCell id="wMxmWrA6vU7E4x_HZSGD-110" value="total_days" style="edgeLabel;html=1;align=center;verticalAlign=middle;resizable=0;points=[];" vertex="1" connectable="0" parent="wMxmWrA6vU7E4x_HZSGD-105">
          <mxGeometry x="-0.1636" y="-1" relative="1" as="geometry">
            <mxPoint x="29" y="-4" as="offset" />
          </mxGeometry>
        </mxCell>
        <mxCell id="wMxmWrA6vU7E4x_HZSGD-14" value="calc_total_days_full_year" style="rounded=0;whiteSpace=wrap;html=1;" vertex="1" parent="1">
          <mxGeometry x="80" y="380" width="160" height="60" as="geometry" />
        </mxCell>
        <mxCell id="wMxmWrA6vU7E4x_HZSGD-21" style="edgeStyle=orthogonalEdgeStyle;rounded=0;orthogonalLoop=1;jettySize=auto;html=1;entryX=0.75;entryY=0;entryDx=0;entryDy=0;" edge="1" parent="1" source="wMxmWrA6vU7E4x_HZSGD-17" target="wMxmWrA6vU7E4x_HZSGD-19">
          <mxGeometry relative="1" as="geometry" />
        </mxCell>
        <mxCell id="wMxmWrA6vU7E4x_HZSGD-54" value="year" style="edgeLabel;html=1;align=center;verticalAlign=middle;resizable=0;points=[];" vertex="1" connectable="0" parent="wMxmWrA6vU7E4x_HZSGD-21">
          <mxGeometry x="0.015" y="-1" relative="1" as="geometry">
            <mxPoint x="-19" y="-9" as="offset" />
          </mxGeometry>
        </mxCell>
        <mxCell id="wMxmWrA6vU7E4x_HZSGD-107" style="edgeStyle=orthogonalEdgeStyle;rounded=0;orthogonalLoop=1;jettySize=auto;html=1;exitX=0.5;exitY=0;exitDx=0;exitDy=0;" edge="1" parent="1">
          <mxGeometry relative="1" as="geometry">
            <mxPoint x="340" y="270" as="targetPoint" />
            <mxPoint x="340" y="380" as="sourcePoint" />
          </mxGeometry>
        </mxCell>
        <mxCell id="wMxmWrA6vU7E4x_HZSGD-109" value="total_days" style="edgeLabel;html=1;align=center;verticalAlign=middle;resizable=0;points=[];" vertex="1" connectable="0" parent="wMxmWrA6vU7E4x_HZSGD-107">
          <mxGeometry x="0.0182" y="-4" relative="1" as="geometry">
            <mxPoint x="26" y="6" as="offset" />
          </mxGeometry>
        </mxCell>
        <mxCell id="wMxmWrA6vU7E4x_HZSGD-17" value="calc_total_days_partial_year" style="rounded=0;whiteSpace=wrap;html=1;" vertex="1" parent="1">
          <mxGeometry x="280" y="380" width="160" height="60" as="geometry" />
        </mxCell>
        <mxCell id="wMxmWrA6vU7E4x_HZSGD-44" style="edgeStyle=orthogonalEdgeStyle;rounded=0;orthogonalLoop=1;jettySize=auto;html=1;" edge="1" parent="1" source="wMxmWrA6vU7E4x_HZSGD-19">
          <mxGeometry relative="1" as="geometry">
            <mxPoint x="420" y="450" as="targetPoint" />
          </mxGeometry>
        </mxCell>
        <mxCell id="wMxmWrA6vU7E4x_HZSGD-48" value="T/F" style="edgeLabel;html=1;align=center;verticalAlign=middle;resizable=0;points=[];" vertex="1" connectable="0" parent="wMxmWrA6vU7E4x_HZSGD-44">
          <mxGeometry x="0.2298" y="-2" relative="1" as="geometry">
            <mxPoint x="8" y="-7" as="offset" />
          </mxGeometry>
        </mxCell>
        <mxCell id="wMxmWrA6vU7E4x_HZSGD-45" style="edgeStyle=orthogonalEdgeStyle;rounded=0;orthogonalLoop=1;jettySize=auto;html=1;" edge="1" parent="1" source="wMxmWrA6vU7E4x_HZSGD-19">
          <mxGeometry relative="1" as="geometry">
            <mxPoint x="110" y="450" as="targetPoint" />
            <Array as="points">
              <mxPoint x="111" y="590" />
            </Array>
          </mxGeometry>
        </mxCell>
        <mxCell id="wMxmWrA6vU7E4x_HZSGD-51" value="T/F" style="edgeLabel;html=1;align=center;verticalAlign=middle;resizable=0;points=[];" vertex="1" connectable="0" parent="wMxmWrA6vU7E4x_HZSGD-45">
          <mxGeometry x="0.2592" y="1" relative="1" as="geometry">
            <mxPoint x="21" as="offset" />
          </mxGeometry>
        </mxCell>
        <mxCell id="wMxmWrA6vU7E4x_HZSGD-85" style="edgeStyle=orthogonalEdgeStyle;rounded=0;orthogonalLoop=1;jettySize=auto;html=1;entryX=0.666;entryY=1.087;entryDx=0;entryDy=0;entryPerimeter=0;" edge="1" parent="1" target="wMxmWrA6vU7E4x_HZSGD-55">
          <mxGeometry relative="1" as="geometry">
            <mxPoint x="60" y="260" as="targetPoint" />
            <mxPoint x="180" y="610" as="sourcePoint" />
            <Array as="points">
              <mxPoint x="180" y="611" />
              <mxPoint x="63" y="611" />
            </Array>
          </mxGeometry>
        </mxCell>
        <mxCell id="wMxmWrA6vU7E4x_HZSGD-86" value="T/F" style="edgeLabel;html=1;align=center;verticalAlign=middle;resizable=0;points=[];" vertex="1" connectable="0" parent="wMxmWrA6vU7E4x_HZSGD-85">
          <mxGeometry x="-0.6482" relative="1" as="geometry">
            <mxPoint x="-15" y="-80" as="offset" />
          </mxGeometry>
        </mxCell>
        <mxCell id="wMxmWrA6vU7E4x_HZSGD-19" value="is_leap_year" style="rounded=0;whiteSpace=wrap;html=1;" vertex="1" parent="1">
          <mxGeometry x="180" y="560" width="160" height="90" as="geometry" />
        </mxCell>
        <mxCell id="wMxmWrA6vU7E4x_HZSGD-28" style="edgeStyle=orthogonalEdgeStyle;rounded=0;orthogonalLoop=1;jettySize=auto;html=1;" edge="1" parent="1">
          <mxGeometry relative="1" as="geometry">
            <mxPoint x="655" y="210" as="sourcePoint" />
            <mxPoint x="425" y="10" as="targetPoint" />
            <Array as="points">
              <mxPoint x="655" y="10" />
            </Array>
          </mxGeometry>
        </mxCell>
        <mxCell id="wMxmWrA6vU7E4x_HZSGD-39" value="month" style="edgeLabel;html=1;align=center;verticalAlign=middle;resizable=0;points=[];" vertex="1" connectable="0" parent="wMxmWrA6vU7E4x_HZSGD-28">
          <mxGeometry x="-0.6525" relative="1" as="geometry">
            <mxPoint x="25" y="5" as="offset" />
          </mxGeometry>
        </mxCell>
        <mxCell id="wMxmWrA6vU7E4x_HZSGD-80" style="edgeStyle=orthogonalEdgeStyle;rounded=0;orthogonalLoop=1;jettySize=auto;html=1;exitX=0.25;exitY=1;exitDx=0;exitDy=0;entryX=0.25;entryY=0;entryDx=0;entryDy=0;" edge="1" parent="1" source="wMxmWrA6vU7E4x_HZSGD-23" target="wMxmWrA6vU7E4x_HZSGD-64">
          <mxGeometry relative="1" as="geometry" />
        </mxCell>
        <mxCell id="wMxmWrA6vU7E4x_HZSGD-82" value="month" style="edgeLabel;html=1;align=center;verticalAlign=middle;resizable=0;points=[];" vertex="1" connectable="0" parent="wMxmWrA6vU7E4x_HZSGD-80">
          <mxGeometry x="-0.055" y="1" relative="1" as="geometry">
            <mxPoint x="-21" y="-8" as="offset" />
          </mxGeometry>
        </mxCell>
        <mxCell id="wMxmWrA6vU7E4x_HZSGD-23" value="get_month" style="rounded=0;whiteSpace=wrap;html=1;" vertex="1" parent="1">
          <mxGeometry x="570" y="200" width="120" height="60" as="geometry" />
        </mxCell>
        <mxCell id="wMxmWrA6vU7E4x_HZSGD-35" style="edgeStyle=orthogonalEdgeStyle;rounded=0;orthogonalLoop=1;jettySize=auto;html=1;exitX=0.833;exitY=-0.06;exitDx=0;exitDy=0;exitPerimeter=0;entryX=0.999;entryY=0.135;entryDx=0;entryDy=0;entryPerimeter=0;" edge="1" parent="1" source="wMxmWrA6vU7E4x_HZSGD-24" target="wMxmWrA6vU7E4x_HZSGD-2">
          <mxGeometry relative="1" as="geometry">
            <mxPoint x="821" y="160" as="sourcePoint" />
            <mxPoint x="450" y="-30" as="targetPoint" />
            <Array as="points">
              <mxPoint x="821" y="196" />
              <mxPoint x="821" y="-29" />
            </Array>
          </mxGeometry>
        </mxCell>
        <mxCell id="wMxmWrA6vU7E4x_HZSGD-40" value="year" style="edgeLabel;html=1;align=center;verticalAlign=middle;resizable=0;points=[];" vertex="1" connectable="0" parent="wMxmWrA6vU7E4x_HZSGD-35">
          <mxGeometry x="-0.807" y="3" relative="1" as="geometry">
            <mxPoint x="22" as="offset" />
          </mxGeometry>
        </mxCell>
        <mxCell id="wMxmWrA6vU7E4x_HZSGD-81" style="edgeStyle=orthogonalEdgeStyle;rounded=0;orthogonalLoop=1;jettySize=auto;html=1;exitX=0.25;exitY=1;exitDx=0;exitDy=0;entryX=0.25;entryY=0;entryDx=0;entryDy=0;" edge="1" parent="1" source="wMxmWrA6vU7E4x_HZSGD-24" target="wMxmWrA6vU7E4x_HZSGD-66">
          <mxGeometry relative="1" as="geometry" />
        </mxCell>
        <mxCell id="wMxmWrA6vU7E4x_HZSGD-83" value="year" style="edgeLabel;html=1;align=center;verticalAlign=middle;resizable=0;points=[];" vertex="1" connectable="0" parent="wMxmWrA6vU7E4x_HZSGD-81">
          <mxGeometry x="-0.13" relative="1" as="geometry">
            <mxPoint x="-20" as="offset" />
          </mxGeometry>
        </mxCell>
        <mxCell id="wMxmWrA6vU7E4x_HZSGD-24" value="get_year" style="rounded=0;whiteSpace=wrap;html=1;" vertex="1" parent="1">
          <mxGeometry x="720" y="200" width="120" height="60" as="geometry" />
        </mxCell>
        <mxCell id="wMxmWrA6vU7E4x_HZSGD-33" value="" style="endArrow=none;html=1;rounded=0;entryX=0.988;entryY=0.365;entryDx=0;entryDy=0;entryPerimeter=0;" edge="1" parent="1" source="wMxmWrA6vU7E4x_HZSGD-24" target="wMxmWrA6vU7E4x_HZSGD-2">
          <mxGeometry width="50" height="50" relative="1" as="geometry">
            <mxPoint x="720" y="95" as="sourcePoint" />
            <mxPoint x="770" y="45" as="targetPoint" />
            <Array as="points">
              <mxPoint x="780" y="-11" />
              <mxPoint x="600" y="-11" />
            </Array>
          </mxGeometry>
        </mxCell>
        <mxCell id="wMxmWrA6vU7E4x_HZSGD-34" value="" style="endArrow=none;html=1;rounded=0;exitX=0.25;exitY=0;exitDx=0;exitDy=0;entryX=1;entryY=0.875;entryDx=0;entryDy=0;entryPerimeter=0;" edge="1" parent="1" source="wMxmWrA6vU7E4x_HZSGD-23" target="wMxmWrA6vU7E4x_HZSGD-2">
          <mxGeometry width="50" height="50" relative="1" as="geometry">
            <mxPoint x="570" y="150" as="sourcePoint" />
            <mxPoint x="440" y="80" as="targetPoint" />
            <Array as="points">
              <mxPoint x="600" y="30" />
            </Array>
          </mxGeometry>
        </mxCell>
        <mxCell id="wMxmWrA6vU7E4x_HZSGD-59" value="" style="edgeStyle=orthogonalEdgeStyle;rounded=0;orthogonalLoop=1;jettySize=auto;html=1;" edge="1" parent="1" source="wMxmWrA6vU7E4x_HZSGD-55">
          <mxGeometry relative="1" as="geometry">
            <mxPoint x="22.360000000000127" y="269.99999999999994" as="sourcePoint" />
            <mxPoint x="170" y="631.2" as="targetPoint" />
            <Array as="points">
              <mxPoint x="22" y="631" />
            </Array>
          </mxGeometry>
        </mxCell>
        <mxCell id="wMxmWrA6vU7E4x_HZSGD-61" value="year" style="edgeLabel;html=1;align=center;verticalAlign=middle;resizable=0;points=[];" vertex="1" connectable="0" parent="wMxmWrA6vU7E4x_HZSGD-59">
          <mxGeometry x="-0.3144" y="2" relative="1" as="geometry">
            <mxPoint x="-24" y="110" as="offset" />
          </mxGeometry>
        </mxCell>
        <mxCell id="wMxmWrA6vU7E4x_HZSGD-62" style="edgeStyle=orthogonalEdgeStyle;rounded=0;orthogonalLoop=1;jettySize=auto;html=1;entryX=0;entryY=1;entryDx=0;entryDy=0;" edge="1" parent="1" source="wMxmWrA6vU7E4x_HZSGD-55" target="wMxmWrA6vU7E4x_HZSGD-2">
          <mxGeometry relative="1" as="geometry">
            <Array as="points">
              <mxPoint x="70" y="40" />
            </Array>
          </mxGeometry>
        </mxCell>
        <mxCell id="wMxmWrA6vU7E4x_HZSGD-63" value="total_days_in_month" style="edgeLabel;html=1;align=center;verticalAlign=middle;resizable=0;points=[];" vertex="1" connectable="0" parent="wMxmWrA6vU7E4x_HZSGD-62">
          <mxGeometry x="0.1007" relative="1" as="geometry">
            <mxPoint x="19" y="10" as="offset" />
          </mxGeometry>
        </mxCell>
        <mxCell id="wMxmWrA6vU7E4x_HZSGD-55" value="calc_total_days_in_month" style="rounded=0;whiteSpace=wrap;html=1;" vertex="1" parent="1">
          <mxGeometry x="-30" y="200" width="140" height="60" as="geometry" />
        </mxCell>
        <mxCell id="wMxmWrA6vU7E4x_HZSGD-72" style="edgeStyle=orthogonalEdgeStyle;rounded=0;orthogonalLoop=1;jettySize=auto;html=1;exitX=0.75;exitY=0;exitDx=0;exitDy=0;entryX=0.75;entryY=1;entryDx=0;entryDy=0;" edge="1" parent="1">
          <mxGeometry relative="1" as="geometry">
            <mxPoint x="661" y="340" as="sourcePoint" />
            <mxPoint x="661" y="260" as="targetPoint" />
          </mxGeometry>
        </mxCell>
        <mxCell id="wMxmWrA6vU7E4x_HZSGD-76" value="T/F" style="edgeLabel;html=1;align=center;verticalAlign=middle;resizable=0;points=[];" vertex="1" connectable="0" parent="wMxmWrA6vU7E4x_HZSGD-72">
          <mxGeometry x="0.08" y="-1" relative="1" as="geometry">
            <mxPoint x="8" y="13" as="offset" />
          </mxGeometry>
        </mxCell>
        <mxCell id="wMxmWrA6vU7E4x_HZSGD-64" value="is_valid_month" style="rounded=0;whiteSpace=wrap;html=1;" vertex="1" parent="1">
          <mxGeometry x="570" y="340" width="120" height="60" as="geometry" />
        </mxCell>
        <mxCell id="wMxmWrA6vU7E4x_HZSGD-73" style="edgeStyle=orthogonalEdgeStyle;rounded=0;orthogonalLoop=1;jettySize=auto;html=1;exitX=0.75;exitY=0;exitDx=0;exitDy=0;entryX=0.75;entryY=1;entryDx=0;entryDy=0;" edge="1" parent="1" source="wMxmWrA6vU7E4x_HZSGD-66" target="wMxmWrA6vU7E4x_HZSGD-24">
          <mxGeometry relative="1" as="geometry" />
        </mxCell>
        <mxCell id="wMxmWrA6vU7E4x_HZSGD-75" value="T/F" style="edgeLabel;html=1;align=center;verticalAlign=middle;resizable=0;points=[];" vertex="1" connectable="0" parent="wMxmWrA6vU7E4x_HZSGD-73">
          <mxGeometry x="-0.17" y="-1" relative="1" as="geometry">
            <mxPoint x="9" as="offset" />
          </mxGeometry>
        </mxCell>
        <mxCell id="wMxmWrA6vU7E4x_HZSGD-66" value="is_valid_year" style="rounded=0;whiteSpace=wrap;html=1;" vertex="1" parent="1">
          <mxGeometry x="720" y="340" width="120" height="60" as="geometry" />
        </mxCell>
        <mxCell id="wMxmWrA6vU7E4x_HZSGD-114" value="" style="endArrow=none;dashed=1;html=1;rounded=0;" edge="1" parent="1">
          <mxGeometry width="50" height="50" relative="1" as="geometry">
            <mxPoint x="-240" y="680" as="sourcePoint" />
            <mxPoint x="-240" y="-80" as="targetPoint" />
          </mxGeometry>
        </mxCell>
        <mxCell id="wMxmWrA6vU7E4x_HZSGD-115" value="" style="endArrow=none;dashed=1;html=1;rounded=0;" edge="1" parent="1">
          <mxGeometry width="50" height="50" relative="1" as="geometry">
            <mxPoint x="-240" y="-80" as="sourcePoint" />
            <mxPoint x="880" y="-80" as="targetPoint" />
          </mxGeometry>
        </mxCell>
        <mxCell id="wMxmWrA6vU7E4x_HZSGD-116" value="" style="endArrow=none;dashed=1;html=1;rounded=0;" edge="1" parent="1">
          <mxGeometry width="50" height="50" relative="1" as="geometry">
            <mxPoint x="880" y="680" as="sourcePoint" />
            <mxPoint x="880" y="-80" as="targetPoint" />
          </mxGeometry>
        </mxCell>
        <mxCell id="wMxmWrA6vU7E4x_HZSGD-117" value="" style="endArrow=none;dashed=1;html=1;rounded=0;" edge="1" parent="1">
          <mxGeometry width="50" height="50" relative="1" as="geometry">
            <mxPoint x="-240" y="680" as="sourcePoint" />
            <mxPoint x="880" y="680" as="targetPoint" />
          </mxGeometry>
        </mxCell>
      </root>
    </mxGraphModel>
  </diagram>
</mxfile>
